<?xml version="1.0" encoding="UTF-8"?>
<svg version="1.1" xmlns="http://www.w3.org/2000/svg" width="106" height="69">
<path d="M0 0 C3.00578513 0.04822115 4.04494091 0.36304701 6.21484375 2.49609375 C8.09138691 5.15559369 9.74978867 7.86706599 11.375 10.6875 C12.36113281 12.33878906 12.36113281 12.33878906 13.3671875 14.0234375 C15.06532247 16.89458136 16.72364253 19.78919913 18.375 22.6875 C18.705 15.4275 19.035 8.1675 19.375 0.6875 C22.015 0.6875 24.655 0.6875 27.375 0.6875 C27.375 13.5575 27.375 26.4275 27.375 39.6875 C18.375 39.6875 18.375 39.6875 16.17578125 37.6328125 C15.68464844 36.70210937 15.19351563 35.77140625 14.6875 34.8125 C13.85992187 33.32169922 13.85992187 33.32169922 13.015625 31.80078125 C12.47421875 30.77339844 11.9328125 29.74601562 11.375 28.6875 C10.23935512 26.78554607 9.09425629 24.88918843 7.9375 23 C7.091875 21.576875 6.24625 20.15375 5.375 18.6875 C5.045 25.6175 4.715 32.5475 4.375 39.6875 C1.735 39.6875 -0.905 39.6875 -3.625 39.6875 C-3.79222525 34.29420134 -3.95282368 28.90076249 -4.10717773 23.50708008 C-4.16067534 21.6707625 -4.21601046 19.83449753 -4.27319336 17.99829102 C-4.35488864 15.36486153 -4.43005738 12.73131595 -4.50390625 10.09765625 C-4.53094131 9.27161392 -4.55797638 8.44557159 -4.58583069 7.59449768 C-4.63783011 5.6261419 -4.63687837 3.65650669 -4.625 1.6875 C-3.625 0.6875 -3.625 0.6875 0 0 Z " fill="#0E0E0E" transform="translate(53.625,13.3125)"/>
<path d="M0 0 C0 4.95 0 9.9 0 15 C4.95 15 9.9 15 15 15 C15 10.05 15 5.1 15 0 C17.97 0 20.94 0 24 0 C24.02464849 5.39346988 24.04283531 10.78690725 24.05493164 16.18041992 C24.05997231 18.01668875 24.06680477 19.85295354 24.07543945 21.68920898 C24.08751672 24.32276401 24.09323081 26.95626616 24.09765625 29.58984375 C24.10281754 30.41588608 24.10797882 31.24192841 24.11329651 32.09300232 C24.11349205 34.06236368 24.06204152 36.03161614 24 38 C23.67 38.33 23.34 38.66 23 39 C20.36 39 17.72 39 15 39 C15 33.39 15 27.78 15 22 C10.05 22 5.1 22 0 22 C0.08378906 23.14339844 0.16757812 24.28679688 0.25390625 25.46484375 C0.35704794 26.95571002 0.45989747 28.44659653 0.5625 29.9375 C0.61857422 30.69224609 0.67464844 31.44699219 0.73242188 32.22460938 C0.86176157 34.14745958 0.93516912 36.07389548 1 38 C0 39 0 39 -1.84765625 39.09765625 C-3.8984375 39.06510417 -5.94921875 39.03255208 -8 39 C-8.71654557 30.19200135 -9.16494311 21.5188056 -8.625 12.6875 C-8.58189697 11.97730713 -8.53879395 11.26711426 -8.49438477 10.53540039 C-8.26350946 7.26407487 -7.95418215 4.14556656 -7 1 C-2.25 0 -2.25 0 0 0 Z " fill="#0E0E0E" transform="translate(19,14)"/>
<path d="M0 0 C2.97 0 5.94 0 9 0 C9 2.31 9 4.62 9 7 C6.03 7 3.06 7 0 7 C0 4.69 0 2.38 0 0 Z " fill="#010101" transform="translate(88,46)"/>
<path d="M0 0 C0.99 0 1.98 0 3 0 C3 12.87 3 25.74 3 39 C0.03 39 -2.94 39 -6 39 C-6.495 37.515 -6.495 37.515 -7 36 C-4.36 36.66 -1.72 37.32 1 38 C1.02468084 32.90967159 1.04285082 27.81937785 1.05493164 22.72900391 C1.05996682 20.99657586 1.06679532 19.26415208 1.07543945 17.53173828 C1.08754065 15.04458567 1.09323638 12.55748913 1.09765625 10.0703125 C1.10281754 9.29317902 1.10797882 8.51604553 1.11329651 7.71536255 C1.20328052 3.72829094 1.20328052 3.72829094 0 0 Z " fill="#010101" transform="translate(78,14)"/>
<path d="M0 0 C1.98 0 3.96 0 6 0 C5.67 1.65 5.34 3.3 5 5 C3.35 5 1.7 5 0 5 C0 3.35 0 1.7 0 0 Z " fill="#101010" transform="translate(90,47)"/>
</svg>
